# xmcd
#
# Track frame offsets:
#	150
#	13600
#	26327
#	37173
#	49984
#	64033
#	75110
#	90783
#	107103
#	120149
#	131761
#	145796
#	157551
#	171016
#	182226
#	193652
#	204139
#	217906
#	232441
#	245454
#	262201
#	275239
#	288064
#	300356
#	312089
#
# Disc length: 4305 seconds
#
# Revision: 0
# Processed by: cddbd v1.5.2PL0 Copyright (c) Steve Scherf et al.
# Submitted via: EasyCDDAExtractor 11.1.0.1
#
DISCID=4c10cf19
DTITLE=B.B.King - Every day I have the blues
DYEAR=1900
DGENRE=blues
TTITLE0=Woke up this morning
TTITLE1=Boogie woogie woman
TTITLE2=Fine looking woman
TTITLE3=Please love me
TTITLE4=Why did you leave me
TTITLE5=I gotta find my baby
TTITLE6=My own fault darlin'
TTITLE7=She don't move me no more
TTITLE8=Some days somewhere
TTITLE9=You didn't want me
TTITLE10=You know I love you
TTITLE11=Shake it up and go
TTITLE12=Story from the heart and soul
TTITLE13=B.B. blues
TTITLE14=She's dynamite
TTITLE15=That ain't the way to do it
TTITLE16=Three o'clock blues
TTITLE17=B.B's boogie
TTITLE18=Mistreated woman
TTITLE19=The other night blues
TTITLE20=Walkin' and cryin'
TTITLE21=Got the blues
TTITLE22=Miss Martha King
TTITLE23=Take a swing with me
TTITLE24=When your baby packs up and goes
EXTD=
EXTT0=
EXTT1=
EXTT2=
EXTT3=
EXTT4=
EXTT5=
EXTT6=
EXTT7=
EXTT8=
EXTT9=
EXTT10=
EXTT11=
EXTT12=
EXTT13=
EXTT14=
EXTT15=
EXTT16=
EXTT17=
EXTT18=
EXTT19=
EXTT20=
EXTT21=
EXTT22=
EXTT23=
EXTT24=
PLAYORDER=
